<svg xmlns="http://www.w3.org/2000/svg" width="200" height="60" viewBox="0 0 200 60">
  <defs>
    <linearGradient id="gradient" x1="0%" y1="0%" x2="100%" y2="0%">
      <stop offset="0%" stop-color="#F44336" />
      <stop offset="50%" stop-color="#FFC107" />
      <stop offset="100%" stop-color="#4CAF50" />
    </linearGradient>
  </defs>
  <g fill="none">
    <path d="M40,10 C51.0457,10 60,18.9543 60,30 C60,41.0457 51.0457,50 40,50 C28.9543,50 20,41.0457 20,30 C20,18.9543 28.9543,10 40,10 Z" fill="url(#gradient)" />
    <path d="M40,15 C48.2843,15 55,21.7157 55,30 C55,38.2843 48.2843,45 40,45 C31.7157,45 25,38.2843 25,30 C25,21.7157 31.7157,15 40,15 Z" fill="#FFFFFF" />
    <path d="M40,20 C45.5228,20 50,24.4772 50,30 C50,35.5228 45.5228,40 40,40 C34.4772,40 30,35.5228 30,30 C30,24.4772 34.4772,20 40,20 Z" fill="url(#gradient)" />
    <text x="70" y="35" font-family="Arial, sans-serif" font-size="18" font-weight="bold" fill="#333333">SENTIGRADE</text>
    <text x="70" y="45" font-family="Arial, sans-serif" font-size="10" fill="#666666">SOUTHEAST ASIA EDITION</text>
  </g>
</svg>
